<mxfile host="app.diagrams.net" modified="2023-07-11T11:15:57.180Z" agent="Mozilla/5.0 (Macintosh; Intel Mac OS X 10_15_7) AppleWebKit/537.36 (KHTML, like Gecko) Chrome/114.0.0.0 Safari/537.36" etag="VDV7CL_dDMdalcOPrBvV" version="21.6.1" type="device">
  <diagram name="Page-1" id="h5PunXjZaPNg4EWJ0orw">
    <mxGraphModel dx="2189" dy="1427" grid="1" gridSize="10" guides="1" tooltips="1" connect="1" arrows="1" fold="1" page="0" pageScale="1" pageWidth="850" pageHeight="1100" math="0" shadow="0">
      <root>
        <mxCell id="0" />
        <mxCell id="1" parent="0" />
        <mxCell id="2hTF833SGySal_HpmzoN-1" value="Customer" style="whiteSpace=wrap;html=1;align=center;" parent="1" vertex="1">
          <mxGeometry x="160" y="190" width="100" height="40" as="geometry" />
        </mxCell>
        <mxCell id="2hTF833SGySal_HpmzoN-11" value="" style="endArrow=none;html=1;rounded=0;entryX=0.5;entryY=0;entryDx=0;entryDy=0;exitX=0.905;exitY=0.848;exitDx=0;exitDy=0;exitPerimeter=0;" parent="1" source="2hTF833SGySal_HpmzoN-130" target="2hTF833SGySal_HpmzoN-1" edge="1">
          <mxGeometry relative="1" as="geometry">
            <mxPoint x="100" y="100" as="sourcePoint" />
            <mxPoint x="480" y="310" as="targetPoint" />
          </mxGeometry>
        </mxCell>
        <mxCell id="2hTF833SGySal_HpmzoN-12" value="" style="endArrow=none;html=1;rounded=0;exitX=1;exitY=0.5;exitDx=0;exitDy=0;entryX=0;entryY=0.5;entryDx=0;entryDy=0;" parent="1" source="2hTF833SGySal_HpmzoN-53" target="2hTF833SGySal_HpmzoN-1" edge="1">
          <mxGeometry relative="1" as="geometry">
            <mxPoint x="102.70000000000027" y="206.91999999999996" as="sourcePoint" />
            <mxPoint x="310" y="350" as="targetPoint" />
          </mxGeometry>
        </mxCell>
        <mxCell id="2hTF833SGySal_HpmzoN-13" value="" style="endArrow=none;html=1;rounded=0;exitX=1;exitY=0.5;exitDx=0;exitDy=0;entryX=0.25;entryY=0;entryDx=0;entryDy=0;" parent="1" source="2hTF833SGySal_HpmzoN-55" target="2hTF833SGySal_HpmzoN-1" edge="1">
          <mxGeometry relative="1" as="geometry">
            <mxPoint x="110.00000000000023" y="150" as="sourcePoint" />
            <mxPoint x="480" y="310" as="targetPoint" />
          </mxGeometry>
        </mxCell>
        <mxCell id="2hTF833SGySal_HpmzoN-14" value="" style="endArrow=none;html=1;rounded=0;entryX=0;entryY=1;entryDx=0;entryDy=0;exitX=0.945;exitY=0.322;exitDx=0;exitDy=0;exitPerimeter=0;" parent="1" source="2hTF833SGySal_HpmzoN-54" target="2hTF833SGySal_HpmzoN-1" edge="1">
          <mxGeometry relative="1" as="geometry">
            <mxPoint x="100" y="260" as="sourcePoint" />
            <mxPoint x="480" y="310" as="targetPoint" />
          </mxGeometry>
        </mxCell>
        <mxCell id="2hTF833SGySal_HpmzoN-16" value="" style="endArrow=none;html=1;rounded=0;entryX=0.636;entryY=0.014;entryDx=0;entryDy=0;entryPerimeter=0;exitX=0.638;exitY=0.948;exitDx=0;exitDy=0;exitPerimeter=0;" parent="1" source="2hTF833SGySal_HpmzoN-129" target="2hTF833SGySal_HpmzoN-1" edge="1">
          <mxGeometry relative="1" as="geometry">
            <mxPoint x="190" y="80" as="sourcePoint" />
            <mxPoint x="420" y="390" as="targetPoint" />
          </mxGeometry>
        </mxCell>
        <mxCell id="2hTF833SGySal_HpmzoN-17" value="Guests&amp;nbsp;&lt;br&gt;Accompanying" style="ellipse;whiteSpace=wrap;html=1;align=center;" parent="1" vertex="1">
          <mxGeometry x="250" y="60" width="100" height="40" as="geometry" />
        </mxCell>
        <mxCell id="2hTF833SGySal_HpmzoN-18" value="" style="endArrow=none;html=1;rounded=0;exitX=0.836;exitY=0.036;exitDx=0;exitDy=0;exitPerimeter=0;entryX=0;entryY=1;entryDx=0;entryDy=0;" parent="1" source="2hTF833SGySal_HpmzoN-1" target="2hTF833SGySal_HpmzoN-17" edge="1">
          <mxGeometry relative="1" as="geometry">
            <mxPoint x="280" y="220" as="sourcePoint" />
            <mxPoint x="440" y="220" as="targetPoint" />
          </mxGeometry>
        </mxCell>
        <mxCell id="2hTF833SGySal_HpmzoN-19" value="books" style="shape=rhombus;perimeter=rhombusPerimeter;whiteSpace=wrap;html=1;align=center;" parent="1" vertex="1">
          <mxGeometry x="340" y="185" width="100" height="50" as="geometry" />
        </mxCell>
        <mxCell id="2hTF833SGySal_HpmzoN-21" value="" style="endArrow=none;html=1;rounded=0;exitX=1;exitY=0.5;exitDx=0;exitDy=0;" parent="1" source="2hTF833SGySal_HpmzoN-1" target="2hTF833SGySal_HpmzoN-19" edge="1">
          <mxGeometry relative="1" as="geometry">
            <mxPoint x="320" y="310" as="sourcePoint" />
            <mxPoint x="480" y="310" as="targetPoint" />
          </mxGeometry>
        </mxCell>
        <mxCell id="2hTF833SGySal_HpmzoN-22" value="Tour" style="whiteSpace=wrap;html=1;align=center;" parent="1" vertex="1">
          <mxGeometry x="580" y="190" width="100" height="40" as="geometry" />
        </mxCell>
        <mxCell id="2hTF833SGySal_HpmzoN-23" value="" style="endArrow=none;html=1;rounded=0;exitX=1;exitY=0.5;exitDx=0;exitDy=0;entryX=0;entryY=0.5;entryDx=0;entryDy=0;" parent="1" source="2hTF833SGySal_HpmzoN-19" target="2hTF833SGySal_HpmzoN-22" edge="1">
          <mxGeometry relative="1" as="geometry">
            <mxPoint x="410" y="310" as="sourcePoint" />
            <mxPoint x="550" y="260" as="targetPoint" />
          </mxGeometry>
        </mxCell>
        <mxCell id="2hTF833SGySal_HpmzoN-38" value="has" style="shape=rhombus;perimeter=rhombusPerimeter;whiteSpace=wrap;html=1;align=center;" parent="1" vertex="1">
          <mxGeometry x="880" y="180" width="80" height="60" as="geometry" />
        </mxCell>
        <mxCell id="2hTF833SGySal_HpmzoN-39" value="" style="endArrow=none;html=1;rounded=0;entryX=0;entryY=0.5;entryDx=0;entryDy=0;exitX=1;exitY=0.5;exitDx=0;exitDy=0;" parent="1" source="2hTF833SGySal_HpmzoN-22" target="2hTF833SGySal_HpmzoN-38" edge="1">
          <mxGeometry relative="1" as="geometry">
            <mxPoint x="700" y="260" as="sourcePoint" />
            <mxPoint x="570" y="420" as="targetPoint" />
          </mxGeometry>
        </mxCell>
        <mxCell id="2hTF833SGySal_HpmzoN-40" value="Tour Guide" style="whiteSpace=wrap;html=1;align=center;" parent="1" vertex="1">
          <mxGeometry x="1110" y="190" width="100" height="40" as="geometry" />
        </mxCell>
        <mxCell id="2hTF833SGySal_HpmzoN-41" value="" style="endArrow=none;html=1;rounded=0;exitX=1;exitY=0.5;exitDx=0;exitDy=0;entryX=0;entryY=0.5;entryDx=0;entryDy=0;" parent="1" source="2hTF833SGySal_HpmzoN-38" target="2hTF833SGySal_HpmzoN-40" edge="1">
          <mxGeometry relative="1" as="geometry">
            <mxPoint x="310" y="390" as="sourcePoint" />
            <mxPoint x="470" y="390" as="targetPoint" />
          </mxGeometry>
        </mxCell>
        <mxCell id="2hTF833SGySal_HpmzoN-42" value="" style="endArrow=none;html=1;rounded=0;exitX=0.003;exitY=0.645;exitDx=0;exitDy=0;entryX=1;entryY=0;entryDx=0;entryDy=0;exitPerimeter=0;" parent="1" source="2hTF833SGySal_HpmzoN-63" target="2hTF833SGySal_HpmzoN-40" edge="1">
          <mxGeometry relative="1" as="geometry">
            <mxPoint x="1304.9999999999923" y="125" as="sourcePoint" />
            <mxPoint x="1140" y="290" as="targetPoint" />
          </mxGeometry>
        </mxCell>
        <mxCell id="2hTF833SGySal_HpmzoN-43" value="" style="endArrow=none;html=1;rounded=0;exitX=0;exitY=1;exitDx=0;exitDy=0;entryX=0.666;entryY=0.059;entryDx=0;entryDy=0;entryPerimeter=0;" parent="1" source="2hTF833SGySal_HpmzoN-64" target="2hTF833SGySal_HpmzoN-40" edge="1">
          <mxGeometry relative="1" as="geometry">
            <mxPoint x="1267.2000000000003" y="77.6400000000001" as="sourcePoint" />
            <mxPoint x="1140" y="290" as="targetPoint" />
          </mxGeometry>
        </mxCell>
        <mxCell id="2hTF833SGySal_HpmzoN-44" value="" style="endArrow=none;html=1;rounded=0;exitX=0.5;exitY=1;exitDx=0;exitDy=0;entryX=0.5;entryY=0;entryDx=0;entryDy=0;" parent="1" source="2hTF833SGySal_HpmzoN-65" target="2hTF833SGySal_HpmzoN-40" edge="1">
          <mxGeometry relative="1" as="geometry">
            <mxPoint x="1191.3999999999996" y="61.84000000000003" as="sourcePoint" />
            <mxPoint x="1140" y="290" as="targetPoint" />
          </mxGeometry>
        </mxCell>
        <mxCell id="2hTF833SGySal_HpmzoN-45" value="" style="endArrow=none;html=1;rounded=0;exitX=0.714;exitY=0.928;exitDx=0;exitDy=0;exitPerimeter=0;entryX=0.25;entryY=0;entryDx=0;entryDy=0;" parent="1" source="2hTF833SGySal_HpmzoN-66" target="2hTF833SGySal_HpmzoN-40" edge="1">
          <mxGeometry relative="1" as="geometry">
            <mxPoint x="1112.4" y="73.44000000000005" as="sourcePoint" />
            <mxPoint x="1140" y="290" as="targetPoint" />
          </mxGeometry>
        </mxCell>
        <mxCell id="2hTF833SGySal_HpmzoN-46" value="" style="endArrow=none;html=1;rounded=0;exitX=1.003;exitY=0.77;exitDx=0;exitDy=0;entryX=0.098;entryY=0.033;entryDx=0;entryDy=0;entryPerimeter=0;exitPerimeter=0;" parent="1" source="2hTF833SGySal_HpmzoN-67" target="2hTF833SGySal_HpmzoN-40" edge="1">
          <mxGeometry relative="1" as="geometry">
            <mxPoint x="1075.1677815203248" y="114.216762742259" as="sourcePoint" />
            <mxPoint x="1140" y="290" as="targetPoint" />
          </mxGeometry>
        </mxCell>
        <mxCell id="2hTF833SGySal_HpmzoN-47" value="" style="endArrow=none;html=1;rounded=0;exitX=0;exitY=0.5;exitDx=0;exitDy=0;entryX=1;entryY=0.75;entryDx=0;entryDy=0;" parent="1" source="2hTF833SGySal_HpmzoN-69" target="2hTF833SGySal_HpmzoN-40" edge="1">
          <mxGeometry relative="1" as="geometry">
            <mxPoint x="1290" y="230" as="sourcePoint" />
            <mxPoint x="1140" y="290" as="targetPoint" />
          </mxGeometry>
        </mxCell>
        <mxCell id="2hTF833SGySal_HpmzoN-48" value="" style="endArrow=none;html=1;rounded=0;exitX=0;exitY=0.5;exitDx=0;exitDy=0;entryX=1;entryY=0.25;entryDx=0;entryDy=0;" parent="1" source="2hTF833SGySal_HpmzoN-62" target="2hTF833SGySal_HpmzoN-40" edge="1">
          <mxGeometry relative="1" as="geometry">
            <mxPoint x="1299.9999999999895" y="180" as="sourcePoint" />
            <mxPoint x="1140" y="290" as="targetPoint" />
          </mxGeometry>
        </mxCell>
        <mxCell id="2hTF833SGySal_HpmzoN-53" value="Address" style="ellipse;whiteSpace=wrap;html=1;align=center;" parent="1" vertex="1">
          <mxGeometry x="-30" y="185" width="100" height="40" as="geometry" />
        </mxCell>
        <mxCell id="2hTF833SGySal_HpmzoN-54" value="Custom Name" style="ellipse;whiteSpace=wrap;html=1;align=center;" parent="1" vertex="1">
          <mxGeometry y="250" width="100" height="40" as="geometry" />
        </mxCell>
        <mxCell id="2hTF833SGySal_HpmzoN-55" value="&lt;u&gt;RID&lt;/u&gt;" style="ellipse;whiteSpace=wrap;html=1;align=center;fontStyle=4;" parent="1" vertex="1">
          <mxGeometry x="-40" y="120" width="100" height="40" as="geometry" />
        </mxCell>
        <mxCell id="2hTF833SGySal_HpmzoN-56" value="Tour Name" style="ellipse;whiteSpace=wrap;html=1;align=center;" parent="1" vertex="1">
          <mxGeometry x="430" y="60" width="100" height="40" as="geometry" />
        </mxCell>
        <mxCell id="2hTF833SGySal_HpmzoN-59" value="Tour Date" style="ellipse;whiteSpace=wrap;html=1;align=center;" parent="1" vertex="1">
          <mxGeometry x="580" y="-20" width="100" height="40" as="geometry" />
        </mxCell>
        <mxCell id="2hTF833SGySal_HpmzoN-60" value="Categary" style="ellipse;whiteSpace=wrap;html=1;align=center;" parent="1" vertex="1">
          <mxGeometry x="470" y="5" width="100" height="40" as="geometry" />
        </mxCell>
        <mxCell id="2hTF833SGySal_HpmzoN-61" value="Tour ID" style="ellipse;whiteSpace=wrap;html=1;align=center;fontStyle=4;" parent="1" vertex="1">
          <mxGeometry x="450" y="120" width="100" height="40" as="geometry" />
        </mxCell>
        <mxCell id="2hTF833SGySal_HpmzoN-62" value="Special&lt;br&gt;Training" style="ellipse;shape=doubleEllipse;margin=3;whiteSpace=wrap;html=1;align=center;" parent="1" vertex="1">
          <mxGeometry x="1320" y="150" width="100" height="40" as="geometry" />
        </mxCell>
        <mxCell id="2hTF833SGySal_HpmzoN-63" value="Employee start&lt;br&gt;Date" style="ellipse;whiteSpace=wrap;html=1;align=center;" parent="1" vertex="1">
          <mxGeometry x="1310" y="80" width="100" height="60" as="geometry" />
        </mxCell>
        <mxCell id="2hTF833SGySal_HpmzoN-64" value="Date of Birth" style="ellipse;whiteSpace=wrap;html=1;align=center;" parent="1" vertex="1">
          <mxGeometry x="1260" y="40" width="100" height="40" as="geometry" />
        </mxCell>
        <mxCell id="2hTF833SGySal_HpmzoN-65" value="Telephone&amp;nbsp;&lt;br&gt;No" style="ellipse;shape=doubleEllipse;margin=3;whiteSpace=wrap;html=1;align=center;" parent="1" vertex="1">
          <mxGeometry x="1150" y="20" width="100" height="50" as="geometry" />
        </mxCell>
        <mxCell id="2hTF833SGySal_HpmzoN-66" value="Address" style="ellipse;whiteSpace=wrap;html=1;align=center;" parent="1" vertex="1">
          <mxGeometry x="1040" y="30" width="100" height="40" as="geometry" />
        </mxCell>
        <mxCell id="2hTF833SGySal_HpmzoN-67" value="Name" style="ellipse;whiteSpace=wrap;html=1;align=center;" parent="1" vertex="1">
          <mxGeometry x="970" y="90" width="100" height="40" as="geometry" />
        </mxCell>
        <mxCell id="2hTF833SGySal_HpmzoN-69" value="Employee&lt;br&gt;ID" style="ellipse;whiteSpace=wrap;html=1;align=center;fontStyle=4;" parent="1" vertex="1">
          <mxGeometry x="1320" y="210" width="100" height="40" as="geometry" />
        </mxCell>
        <mxCell id="2hTF833SGySal_HpmzoN-70" value="Rate" style="ellipse;whiteSpace=wrap;html=1;align=center;" parent="1" vertex="1">
          <mxGeometry x="730" y="60" width="100" height="40" as="geometry" />
        </mxCell>
        <mxCell id="2hTF833SGySal_HpmzoN-71" value="Tour location" style="ellipse;shape=doubleEllipse;margin=3;whiteSpace=wrap;html=1;align=center;" parent="1" vertex="1">
          <mxGeometry x="690" y="5" width="100" height="40" as="geometry" />
        </mxCell>
        <mxCell id="2hTF833SGySal_HpmzoN-72" value="Tour&lt;br&gt;Members" style="ellipse;whiteSpace=wrap;html=1;align=center;" parent="1" vertex="1">
          <mxGeometry x="710" y="130" width="100" height="40" as="geometry" />
        </mxCell>
        <mxCell id="2hTF833SGySal_HpmzoN-73" value="" style="endArrow=none;html=1;rounded=0;entryX=0.672;entryY=0.033;entryDx=0;entryDy=0;entryPerimeter=0;exitX=0;exitY=1;exitDx=0;exitDy=0;" parent="1" source="2hTF833SGySal_HpmzoN-71" target="2hTF833SGySal_HpmzoN-22" edge="1">
          <mxGeometry relative="1" as="geometry">
            <mxPoint x="690" y="60" as="sourcePoint" />
            <mxPoint x="770" y="240" as="targetPoint" />
          </mxGeometry>
        </mxCell>
        <mxCell id="2hTF833SGySal_HpmzoN-74" value="" style="endArrow=none;html=1;rounded=0;exitX=0.5;exitY=1;exitDx=0;exitDy=0;entryX=0.5;entryY=0;entryDx=0;entryDy=0;" parent="1" source="2hTF833SGySal_HpmzoN-59" target="2hTF833SGySal_HpmzoN-22" edge="1">
          <mxGeometry relative="1" as="geometry">
            <mxPoint x="610" y="240" as="sourcePoint" />
            <mxPoint x="630" y="180" as="targetPoint" />
          </mxGeometry>
        </mxCell>
        <mxCell id="2hTF833SGySal_HpmzoN-75" value="" style="endArrow=none;html=1;rounded=0;exitX=0.729;exitY=0.974;exitDx=0;exitDy=0;exitPerimeter=0;entryX=0.366;entryY=0.007;entryDx=0;entryDy=0;entryPerimeter=0;" parent="1" source="2hTF833SGySal_HpmzoN-60" target="2hTF833SGySal_HpmzoN-22" edge="1">
          <mxGeometry relative="1" as="geometry">
            <mxPoint x="610" y="240" as="sourcePoint" />
            <mxPoint x="770" y="240" as="targetPoint" />
          </mxGeometry>
        </mxCell>
        <mxCell id="2hTF833SGySal_HpmzoN-76" value="" style="endArrow=none;html=1;rounded=0;exitX=0.951;exitY=0.704;exitDx=0;exitDy=0;exitPerimeter=0;" parent="1" source="2hTF833SGySal_HpmzoN-56" edge="1">
          <mxGeometry relative="1" as="geometry">
            <mxPoint x="610" y="240" as="sourcePoint" />
            <mxPoint x="600" y="190" as="targetPoint" />
          </mxGeometry>
        </mxCell>
        <mxCell id="2hTF833SGySal_HpmzoN-77" value="" style="endArrow=none;html=1;rounded=0;exitX=0.982;exitY=0.704;exitDx=0;exitDy=0;exitPerimeter=0;entryX=0.093;entryY=0.007;entryDx=0;entryDy=0;entryPerimeter=0;" parent="1" source="2hTF833SGySal_HpmzoN-61" target="2hTF833SGySal_HpmzoN-22" edge="1">
          <mxGeometry relative="1" as="geometry">
            <mxPoint x="610" y="240" as="sourcePoint" />
            <mxPoint x="770" y="240" as="targetPoint" />
          </mxGeometry>
        </mxCell>
        <mxCell id="2hTF833SGySal_HpmzoN-78" value="" style="endArrow=none;html=1;rounded=0;exitX=0;exitY=0.5;exitDx=0;exitDy=0;entryX=0.924;entryY=-0.02;entryDx=0;entryDy=0;entryPerimeter=0;" parent="1" source="2hTF833SGySal_HpmzoN-72" target="2hTF833SGySal_HpmzoN-22" edge="1">
          <mxGeometry relative="1" as="geometry">
            <mxPoint x="700" y="160" as="sourcePoint" />
            <mxPoint x="770" y="240" as="targetPoint" />
          </mxGeometry>
        </mxCell>
        <mxCell id="2hTF833SGySal_HpmzoN-79" value="" style="endArrow=none;html=1;rounded=0;exitX=0;exitY=0.5;exitDx=0;exitDy=0;entryX=0.75;entryY=0;entryDx=0;entryDy=0;" parent="1" source="2hTF833SGySal_HpmzoN-70" target="2hTF833SGySal_HpmzoN-22" edge="1">
          <mxGeometry relative="1" as="geometry">
            <mxPoint x="610" y="240" as="sourcePoint" />
            <mxPoint x="770" y="240" as="targetPoint" />
          </mxGeometry>
        </mxCell>
        <mxCell id="2hTF833SGySal_HpmzoN-80" value="Coordinated&amp;nbsp;&lt;br&gt;by" style="shape=rhombus;perimeter=rhombusPerimeter;whiteSpace=wrap;html=1;align=center;" parent="1" vertex="1">
          <mxGeometry x="565" y="410" width="130" height="70" as="geometry" />
        </mxCell>
        <mxCell id="2hTF833SGySal_HpmzoN-81" value="" style="endArrow=none;html=1;rounded=0;exitX=0.5;exitY=1;exitDx=0;exitDy=0;entryX=0.5;entryY=0;entryDx=0;entryDy=0;" parent="1" source="2hTF833SGySal_HpmzoN-22" target="2hTF833SGySal_HpmzoN-80" edge="1">
          <mxGeometry relative="1" as="geometry">
            <mxPoint x="610" y="340" as="sourcePoint" />
            <mxPoint x="770" y="340" as="targetPoint" />
          </mxGeometry>
        </mxCell>
        <mxCell id="2hTF833SGySal_HpmzoN-82" value="Coordinated" style="whiteSpace=wrap;html=1;align=center;" parent="1" vertex="1">
          <mxGeometry x="570" y="620" width="120" height="50" as="geometry" />
        </mxCell>
        <mxCell id="2hTF833SGySal_HpmzoN-84" value="" style="endArrow=none;html=1;rounded=0;exitX=0.5;exitY=1;exitDx=0;exitDy=0;entryX=0.5;entryY=0;entryDx=0;entryDy=0;" parent="1" source="2hTF833SGySal_HpmzoN-80" target="2hTF833SGySal_HpmzoN-82" edge="1">
          <mxGeometry relative="1" as="geometry">
            <mxPoint x="630" y="490" as="sourcePoint" />
            <mxPoint x="770" y="760" as="targetPoint" />
          </mxGeometry>
        </mxCell>
        <mxCell id="2hTF833SGySal_HpmzoN-86" value="Address" style="ellipse;whiteSpace=wrap;html=1;align=center;" parent="1" vertex="1">
          <mxGeometry x="390" y="590" width="100" height="40" as="geometry" />
        </mxCell>
        <mxCell id="2hTF833SGySal_HpmzoN-87" value="Name" style="ellipse;whiteSpace=wrap;html=1;align=center;" parent="1" vertex="1">
          <mxGeometry x="465" y="530" width="100" height="40" as="geometry" />
        </mxCell>
        <mxCell id="2hTF833SGySal_HpmzoN-88" value="Coodinated &lt;br&gt;ID" style="ellipse;whiteSpace=wrap;html=1;align=center;fontStyle=4;" parent="1" vertex="1">
          <mxGeometry x="430" y="750" width="110" height="50" as="geometry" />
        </mxCell>
        <mxCell id="2hTF833SGySal_HpmzoN-89" value="Telephone&lt;br&gt;No" style="ellipse;whiteSpace=wrap;html=1;align=center;" parent="1" vertex="1">
          <mxGeometry x="570" y="780" width="100" height="40" as="geometry" />
        </mxCell>
        <mxCell id="2hTF833SGySal_HpmzoN-90" value="Qualifications" style="ellipse;shape=doubleEllipse;margin=3;whiteSpace=wrap;html=1;align=center;" parent="1" vertex="1">
          <mxGeometry x="390" y="660" width="100" height="40" as="geometry" />
        </mxCell>
        <mxCell id="2hTF833SGySal_HpmzoN-92" value="" style="endArrow=none;html=1;rounded=0;exitX=1;exitY=0.5;exitDx=0;exitDy=0;entryX=0;entryY=0.25;entryDx=0;entryDy=0;" parent="1" source="2hTF833SGySal_HpmzoN-86" target="2hTF833SGySal_HpmzoN-82" edge="1">
          <mxGeometry relative="1" as="geometry">
            <mxPoint x="590" y="790" as="sourcePoint" />
            <mxPoint x="750" y="790" as="targetPoint" />
          </mxGeometry>
        </mxCell>
        <mxCell id="2hTF833SGySal_HpmzoN-93" value="" style="endArrow=none;html=1;rounded=0;exitX=0.925;exitY=0.84;exitDx=0;exitDy=0;entryX=0.09;entryY=-0.012;entryDx=0;entryDy=0;entryPerimeter=0;exitPerimeter=0;" parent="1" source="2hTF833SGySal_HpmzoN-87" target="2hTF833SGySal_HpmzoN-82" edge="1">
          <mxGeometry relative="1" as="geometry">
            <mxPoint x="590" y="790" as="sourcePoint" />
            <mxPoint x="750" y="790" as="targetPoint" />
          </mxGeometry>
        </mxCell>
        <mxCell id="2hTF833SGySal_HpmzoN-94" value="" style="endArrow=none;html=1;rounded=0;exitX=0.924;exitY=0.205;exitDx=0;exitDy=0;exitPerimeter=0;entryX=0.132;entryY=1.055;entryDx=0;entryDy=0;entryPerimeter=0;" parent="1" source="2hTF833SGySal_HpmzoN-88" target="2hTF833SGySal_HpmzoN-82" edge="1">
          <mxGeometry relative="1" as="geometry">
            <mxPoint x="590" y="790" as="sourcePoint" />
            <mxPoint x="750" y="790" as="targetPoint" />
          </mxGeometry>
        </mxCell>
        <mxCell id="2hTF833SGySal_HpmzoN-95" value="" style="endArrow=none;html=1;rounded=0;exitX=0;exitY=0.75;exitDx=0;exitDy=0;" parent="1" source="2hTF833SGySal_HpmzoN-82" edge="1">
          <mxGeometry relative="1" as="geometry">
            <mxPoint x="590" y="790" as="sourcePoint" />
            <mxPoint x="490" y="680" as="targetPoint" />
          </mxGeometry>
        </mxCell>
        <mxCell id="2hTF833SGySal_HpmzoN-96" value="" style="endArrow=none;html=1;rounded=0;exitX=0.5;exitY=0;exitDx=0;exitDy=0;entryX=0.5;entryY=1;entryDx=0;entryDy=0;" parent="1" source="2hTF833SGySal_HpmzoN-89" target="2hTF833SGySal_HpmzoN-82" edge="1">
          <mxGeometry relative="1" as="geometry">
            <mxPoint x="590" y="790" as="sourcePoint" />
            <mxPoint x="750" y="790" as="targetPoint" />
          </mxGeometry>
        </mxCell>
        <mxCell id="2hTF833SGySal_HpmzoN-97" value="Reservation" style="shape=rhombus;perimeter=rhombusPerimeter;whiteSpace=wrap;html=1;align=center;" parent="1" vertex="1">
          <mxGeometry x="850" y="615" width="120" height="60" as="geometry" />
        </mxCell>
        <mxCell id="2hTF833SGySal_HpmzoN-98" value="" style="endArrow=none;html=1;rounded=0;exitX=1;exitY=0.5;exitDx=0;exitDy=0;entryX=0;entryY=0.5;entryDx=0;entryDy=0;" parent="1" source="2hTF833SGySal_HpmzoN-82" target="2hTF833SGySal_HpmzoN-97" edge="1">
          <mxGeometry relative="1" as="geometry">
            <mxPoint x="570" y="690" as="sourcePoint" />
            <mxPoint x="730" y="690" as="targetPoint" />
          </mxGeometry>
        </mxCell>
        <mxCell id="2hTF833SGySal_HpmzoN-99" value="Hotel" style="whiteSpace=wrap;html=1;align=center;" parent="1" vertex="1">
          <mxGeometry x="1110" y="625" width="100" height="40" as="geometry" />
        </mxCell>
        <mxCell id="2hTF833SGySal_HpmzoN-100" value="" style="endArrow=none;html=1;rounded=0;exitX=1;exitY=0.5;exitDx=0;exitDy=0;entryX=0;entryY=0.5;entryDx=0;entryDy=0;" parent="1" source="2hTF833SGySal_HpmzoN-97" target="2hTF833SGySal_HpmzoN-99" edge="1">
          <mxGeometry relative="1" as="geometry">
            <mxPoint x="900" y="690" as="sourcePoint" />
            <mxPoint x="1060" y="690" as="targetPoint" />
          </mxGeometry>
        </mxCell>
        <mxCell id="2hTF833SGySal_HpmzoN-102" value="Hotel Number" style="ellipse;whiteSpace=wrap;html=1;align=center;fontStyle=4;" parent="1" vertex="1">
          <mxGeometry x="1040" y="520" width="100" height="40" as="geometry" />
        </mxCell>
        <mxCell id="2hTF833SGySal_HpmzoN-103" value="Name" style="ellipse;whiteSpace=wrap;html=1;align=center;" parent="1" vertex="1">
          <mxGeometry x="1150" y="490" width="100" height="40" as="geometry" />
        </mxCell>
        <mxCell id="2hTF833SGySal_HpmzoN-104" value="Address" style="ellipse;whiteSpace=wrap;html=1;align=center;" parent="1" vertex="1">
          <mxGeometry x="1260" y="540" width="100" height="40" as="geometry" />
        </mxCell>
        <mxCell id="2hTF833SGySal_HpmzoN-105" value="Telephone&amp;nbsp;&lt;br&gt;No" style="ellipse;shape=doubleEllipse;margin=3;whiteSpace=wrap;html=1;align=center;" parent="1" vertex="1">
          <mxGeometry x="1310" y="615" width="100" height="40" as="geometry" />
        </mxCell>
        <mxCell id="2hTF833SGySal_HpmzoN-106" value="Number of&lt;br&gt;Rooms" style="ellipse;whiteSpace=wrap;html=1;align=center;" parent="1" vertex="1">
          <mxGeometry x="1310" y="675" width="100" height="40" as="geometry" />
        </mxCell>
        <mxCell id="2hTF833SGySal_HpmzoN-107" value="Room&amp;nbsp;&lt;br&gt;Rent" style="ellipse;whiteSpace=wrap;html=1;align=center;" parent="1" vertex="1">
          <mxGeometry x="1230" y="730" width="100" height="40" as="geometry" />
        </mxCell>
        <mxCell id="2hTF833SGySal_HpmzoN-108" value="Facilities&lt;br&gt;" style="ellipse;whiteSpace=wrap;html=1;align=center;" parent="1" vertex="1">
          <mxGeometry x="1110" y="750" width="100" height="40" as="geometry" />
        </mxCell>
        <mxCell id="2hTF833SGySal_HpmzoN-109" value="" style="endArrow=none;html=1;rounded=0;exitX=0.5;exitY=0;exitDx=0;exitDy=0;entryX=0.5;entryY=1;entryDx=0;entryDy=0;" parent="1" source="2hTF833SGySal_HpmzoN-108" target="2hTF833SGySal_HpmzoN-99" edge="1">
          <mxGeometry relative="1" as="geometry">
            <mxPoint x="1020" y="690" as="sourcePoint" />
            <mxPoint x="1180" y="690" as="targetPoint" />
          </mxGeometry>
        </mxCell>
        <mxCell id="2hTF833SGySal_HpmzoN-110" value="" style="endArrow=none;html=1;rounded=0;entryX=0;entryY=0;entryDx=0;entryDy=0;exitX=0.861;exitY=0.985;exitDx=0;exitDy=0;exitPerimeter=0;" parent="1" source="2hTF833SGySal_HpmzoN-99" target="2hTF833SGySal_HpmzoN-107" edge="1">
          <mxGeometry relative="1" as="geometry">
            <mxPoint x="1020" y="690" as="sourcePoint" />
            <mxPoint x="1180" y="690" as="targetPoint" />
          </mxGeometry>
        </mxCell>
        <mxCell id="2hTF833SGySal_HpmzoN-111" value="" style="endArrow=none;html=1;rounded=0;exitX=0;exitY=0.5;exitDx=0;exitDy=0;entryX=1;entryY=0.75;entryDx=0;entryDy=0;" parent="1" source="2hTF833SGySal_HpmzoN-106" target="2hTF833SGySal_HpmzoN-99" edge="1">
          <mxGeometry relative="1" as="geometry">
            <mxPoint x="1020" y="690" as="sourcePoint" />
            <mxPoint x="1180" y="690" as="targetPoint" />
          </mxGeometry>
        </mxCell>
        <mxCell id="2hTF833SGySal_HpmzoN-112" value="" style="endArrow=none;html=1;rounded=0;exitX=0;exitY=0.5;exitDx=0;exitDy=0;entryX=1;entryY=0.25;entryDx=0;entryDy=0;" parent="1" source="2hTF833SGySal_HpmzoN-105" target="2hTF833SGySal_HpmzoN-99" edge="1">
          <mxGeometry relative="1" as="geometry">
            <mxPoint x="1020" y="690" as="sourcePoint" />
            <mxPoint x="1180" y="690" as="targetPoint" />
          </mxGeometry>
        </mxCell>
        <mxCell id="2hTF833SGySal_HpmzoN-113" value="" style="endArrow=none;html=1;rounded=0;exitX=0.032;exitY=0.757;exitDx=0;exitDy=0;exitPerimeter=0;entryX=0.932;entryY=-0.044;entryDx=0;entryDy=0;entryPerimeter=0;" parent="1" source="2hTF833SGySal_HpmzoN-104" target="2hTF833SGySal_HpmzoN-99" edge="1">
          <mxGeometry relative="1" as="geometry">
            <mxPoint x="1020" y="690" as="sourcePoint" />
            <mxPoint x="1180" y="690" as="targetPoint" />
          </mxGeometry>
        </mxCell>
        <mxCell id="2hTF833SGySal_HpmzoN-114" value="" style="endArrow=none;html=1;rounded=0;exitX=0.344;exitY=1.096;exitDx=0;exitDy=0;exitPerimeter=0;entryX=0.5;entryY=0;entryDx=0;entryDy=0;" parent="1" source="2hTF833SGySal_HpmzoN-103" target="2hTF833SGySal_HpmzoN-99" edge="1">
          <mxGeometry relative="1" as="geometry">
            <mxPoint x="1020" y="690" as="sourcePoint" />
            <mxPoint x="1180" y="690" as="targetPoint" />
          </mxGeometry>
        </mxCell>
        <mxCell id="2hTF833SGySal_HpmzoN-115" value="" style="endArrow=none;html=1;rounded=0;exitX=0.761;exitY=1.081;exitDx=0;exitDy=0;exitPerimeter=0;entryX=0.25;entryY=0;entryDx=0;entryDy=0;" parent="1" source="2hTF833SGySal_HpmzoN-102" target="2hTF833SGySal_HpmzoN-99" edge="1">
          <mxGeometry relative="1" as="geometry">
            <mxPoint x="1020" y="690" as="sourcePoint" />
            <mxPoint x="1180" y="690" as="targetPoint" />
          </mxGeometry>
        </mxCell>
        <mxCell id="2hTF833SGySal_HpmzoN-117" value="Relationship" style="shape=rhombus;perimeter=rhombusPerimeter;whiteSpace=wrap;html=1;align=center;" parent="1" vertex="1">
          <mxGeometry x="130" y="430" width="120" height="60" as="geometry" />
        </mxCell>
        <mxCell id="2hTF833SGySal_HpmzoN-118" value="" style="endArrow=none;html=1;rounded=0;entryX=0.5;entryY=0;entryDx=0;entryDy=0;exitX=0.304;exitY=1.071;exitDx=0;exitDy=0;exitPerimeter=0;" parent="1" source="2hTF833SGySal_HpmzoN-1" target="2hTF833SGySal_HpmzoN-117" edge="1">
          <mxGeometry relative="1" as="geometry">
            <mxPoint x="190" y="240" as="sourcePoint" />
            <mxPoint x="700" y="460" as="targetPoint" />
          </mxGeometry>
        </mxCell>
        <mxCell id="2hTF833SGySal_HpmzoN-119" value="Equipment" style="whiteSpace=wrap;html=1;align=center;" parent="1" vertex="1">
          <mxGeometry x="110" y="700" width="100" height="40" as="geometry" />
        </mxCell>
        <mxCell id="2hTF833SGySal_HpmzoN-120" value="" style="endArrow=none;html=1;rounded=0;exitX=0.5;exitY=1;exitDx=0;exitDy=0;entryX=0.81;entryY=-0.042;entryDx=0;entryDy=0;entryPerimeter=0;" parent="1" source="2hTF833SGySal_HpmzoN-117" target="2hTF833SGySal_HpmzoN-119" edge="1">
          <mxGeometry relative="1" as="geometry">
            <mxPoint x="250" y="600" as="sourcePoint" />
            <mxPoint x="410" y="600" as="targetPoint" />
          </mxGeometry>
        </mxCell>
        <mxCell id="2hTF833SGySal_HpmzoN-121" value="Item Code" style="ellipse;whiteSpace=wrap;html=1;align=center;fontStyle=4;" parent="1" vertex="1">
          <mxGeometry x="-80" y="615" width="100" height="40" as="geometry" />
        </mxCell>
        <mxCell id="2hTF833SGySal_HpmzoN-122" value="Description" style="ellipse;whiteSpace=wrap;html=1;align=center;" parent="1" vertex="1">
          <mxGeometry x="-130" y="690" width="100" height="40" as="geometry" />
        </mxCell>
        <mxCell id="2hTF833SGySal_HpmzoN-123" value="Rent Rate" style="ellipse;whiteSpace=wrap;html=1;align=center;" parent="1" vertex="1">
          <mxGeometry x="-100" y="800" width="100" height="40" as="geometry" />
        </mxCell>
        <mxCell id="2hTF833SGySal_HpmzoN-124" value="Quantity" style="ellipse;whiteSpace=wrap;html=1;align=center;" parent="1" vertex="1">
          <mxGeometry x="80" y="860" width="100" height="40" as="geometry" />
        </mxCell>
        <mxCell id="2hTF833SGySal_HpmzoN-125" value="" style="endArrow=none;html=1;rounded=0;exitX=0.5;exitY=0;exitDx=0;exitDy=0;entryX=0.25;entryY=1;entryDx=0;entryDy=0;" parent="1" source="2hTF833SGySal_HpmzoN-124" target="2hTF833SGySal_HpmzoN-119" edge="1">
          <mxGeometry relative="1" as="geometry">
            <mxPoint x="110" y="700" as="sourcePoint" />
            <mxPoint x="270" y="700" as="targetPoint" />
          </mxGeometry>
        </mxCell>
        <mxCell id="2hTF833SGySal_HpmzoN-126" value="" style="endArrow=none;html=1;rounded=0;exitX=1;exitY=0.5;exitDx=0;exitDy=0;entryX=0;entryY=1;entryDx=0;entryDy=0;" parent="1" source="2hTF833SGySal_HpmzoN-123" target="2hTF833SGySal_HpmzoN-119" edge="1">
          <mxGeometry relative="1" as="geometry">
            <mxPoint x="110" y="700" as="sourcePoint" />
            <mxPoint x="270" y="700" as="targetPoint" />
          </mxGeometry>
        </mxCell>
        <mxCell id="2hTF833SGySal_HpmzoN-127" value="" style="endArrow=none;html=1;rounded=0;exitX=1;exitY=0.5;exitDx=0;exitDy=0;entryX=0;entryY=0.25;entryDx=0;entryDy=0;" parent="1" source="2hTF833SGySal_HpmzoN-122" target="2hTF833SGySal_HpmzoN-119" edge="1">
          <mxGeometry relative="1" as="geometry">
            <mxPoint x="110" y="700" as="sourcePoint" />
            <mxPoint x="270" y="700" as="targetPoint" />
          </mxGeometry>
        </mxCell>
        <mxCell id="2hTF833SGySal_HpmzoN-128" value="" style="endArrow=none;html=1;rounded=0;exitX=0.991;exitY=0.809;exitDx=0;exitDy=0;exitPerimeter=0;" parent="1" source="2hTF833SGySal_HpmzoN-121" target="2hTF833SGySal_HpmzoN-119" edge="1">
          <mxGeometry relative="1" as="geometry">
            <mxPoint x="110" y="700" as="sourcePoint" />
            <mxPoint x="270" y="700" as="targetPoint" />
          </mxGeometry>
        </mxCell>
        <mxCell id="2hTF833SGySal_HpmzoN-129" value="Tour&lt;br&gt;preference" style="ellipse;shape=doubleEllipse;margin=3;whiteSpace=wrap;html=1;align=center;" parent="1" vertex="1">
          <mxGeometry x="120" y="25" width="110" height="50" as="geometry" />
        </mxCell>
        <mxCell id="2hTF833SGySal_HpmzoN-130" value="Telephone Number" style="ellipse;shape=doubleEllipse;margin=3;whiteSpace=wrap;html=1;align=center;" parent="1" vertex="1">
          <mxGeometry x="-20" y="50" width="120" height="50" as="geometry" />
        </mxCell>
      </root>
    </mxGraphModel>
  </diagram>
</mxfile>
